<?xml version="1.0" encoding="UTF-8"?>
<svg version="1.1" xmlns="http://www.w3.org/2000/svg" width="225" height="225">
<path d="M0 0 C3.56323332 2.79739038 6.82015216 5.77775419 10 9 C10.74894531 9.74765625 11.49789062 10.4953125 12.26953125 11.265625 C12.84058594 11.83796875 13.41164063 12.4103125 14 13 C14.69222656 12.14728516 14.69222656 12.14728516 15.3984375 11.27734375 C25.68728189 -0.9025333 40.16336579 -9.78235275 56.30541992 -11.20288086 C58.64549491 -11.30214777 60.9704286 -11.32935117 63.3125 -11.3125 C64.14209229 -11.30686035 64.97168457 -11.3012207 65.82641602 -11.29541016 C83.60735899 -10.9459841 98.2440717 -3.11216159 110.5625 9.4375 C121.17454417 21.68502558 126.77974929 37.62386035 126.28515625 53.81640625 C124.66471824 71.90759768 118.55840103 88.12989415 110 104 C109.4328125 105.0621875 108.865625 106.124375 108.28125 107.21875 C103.9096865 115.05457136 98.66163282 122.07221292 93 129 C92.53432617 129.57008789 92.06865234 130.14017578 91.58886719 130.72753906 C81.19126027 143.35270109 70.01170344 155.03764384 57 165 C56.15332764 165.65331299 56.15332764 165.65331299 55.28955078 166.31982422 C46.57408902 173.0115937 37.69994294 178.82747904 28 184 C27.04738281 184.51691406 26.09476562 185.03382813 25.11328125 185.56640625 C14.92803265 190.91023624 14.92803265 190.91023624 8.40625 188.8828125 C7.0954262 188.3166988 5.79355415 187.72953405 4.5 187.125 C3.80003906 186.80619873 3.10007812 186.48739746 2.37890625 186.15893555 C-4.86417922 182.75759964 -11.47828614 178.61655316 -18 174 C-18.64469238 173.54463867 -19.28938477 173.08927734 -19.95361328 172.62011719 C-29.01554543 166.15513537 -37.47078361 159.2403387 -45.46191406 151.49121094 C-46.99314713 150.00664402 -48.53914477 148.53863762 -50.0859375 147.0703125 C-57.50100145 139.93980489 -63.85375857 132.23514523 -70 124 C-70.43054688 123.43555176 -70.86109375 122.87110352 -71.3046875 122.28955078 C-88.64774038 99.52679387 -101.74968104 70.55406257 -98.7265625 41.359375 C-95.91719459 24.92722309 -86.61783522 10.1397933 -73.47265625 0.0625 C-50.84543249 -15.35458051 -22.55774634 -14.89458849 0 0 Z " fill="#DD2F44" transform="translate(99,23)"/>
<path d="M0 0 C0.86560547 0.00902344 1.73121094 0.01804687 2.62304688 0.02734375 C4.72798779 0.05060277 6.83278342 0.08645992 8.9375 0.125 C9.4325 1.115 9.4325 1.115 9.9375 2.125 C9.21159668 2.1751123 8.48569336 2.22522461 7.73779297 2.27685547 C4.42873877 2.50985769 1.12067287 2.75481462 -2.1875 3 C-3.32960937 3.07863281 -4.47171875 3.15726563 -5.6484375 3.23828125 C-6.75703125 3.32207031 -7.865625 3.40585938 -9.0078125 3.4921875 C-10.02375488 3.56550293 -11.03969727 3.63881836 -12.08642578 3.71435547 C-16.52917698 4.32737495 -20.01733735 5.04909727 -23.1875 8.3125 C-24.115625 9.2096875 -24.115625 9.2096875 -25.0625 10.125 C-27.3125 9.875 -27.3125 9.875 -29.0625 9.125 C-29.0625 9.785 -29.0625 10.445 -29.0625 11.125 C-31.3352675 12.62024178 -33.6304943 13.90899715 -36.0625 15.125 C-36.0625 14.465 -36.0625 13.805 -36.0625 13.125 C-36.7225 12.795 -37.3825 12.465 -38.0625 12.125 C-25.54714407 4.28657248 -14.91776007 -0.30090129 0 0 Z " fill="#D44C5F" transform="translate(163.0625,11.875)"/>
<path d="M0 0 C1.32 0 2.64 0 4 0 C4 0.66 4 1.32 4 2 C1.74185152 3.79826445 -0.51277739 5.4746801 -2.875 7.125 C-3.85146484 7.82689453 -3.85146484 7.82689453 -4.84765625 8.54296875 C-9.73587828 12 -9.73587828 12 -12 12 C-12 10.35 -12 8.7 -12 7 C-11.01 7.33 -10.02 7.66 -9 8 C-9 7.34 -9 6.68 -9 6 C-8.01 6 -7.02 6 -6 6 C-5.67 4.35 -5.34 2.7 -5 1 C-3.35 1.33 -1.7 1.66 0 2 C0 1.34 0 0.68 0 0 Z " fill="#D54B5F" transform="translate(151,187)"/>
<path d="M0 0 C0.88365234 0.00451172 1.76730469 0.00902344 2.67773438 0.01367188 C4.84768559 0.02540134 7.01760172 0.04333505 9.1875 0.0625 C9.5175 0.7225 9.8475 1.3825 10.1875 2.0625 C1.83645793 2.74521293 -6.43238971 3.21642039 -14.8125 3.0625 C-14.8125 2.4025 -14.8125 1.7425 -14.8125 1.0625 C-9.89747242 -0.22985715 -5.03959898 -0.04885517 0 0 Z " fill="#D55C6F" transform="translate(162.8125,11.9375)"/>
<path d="M0 0 C5.40489519 1.52012677 8.98492628 5.27385218 13 9 C12.34 9.66 11.68 10.32 11 11 C7.125 9.25 7.125 9.25 6 7 C5.34 7 4.68 7 4 7 C3.67 7.33 3.34 7.66 3 8 C2.01 7.67 1.02 7.34 0 7 C0 4.69 0 2.38 0 0 Z " fill="#D54457" transform="translate(194,21)"/>
<path d="M0 0 C2.475 0.495 2.475 0.495 5 1 C5 1.66 5 2.32 5 3 C5.66 3 6.32 3 7 3 C7.33 2.34 7.66 1.68 8 1 C10 4 10 4 10 7 C10.66 7.33 11.32 7.66 12 8 C8.21516391 8 7.22592069 6.89417485 4.3125 4.5625 C3.50425781 3.92441406 2.69601563 3.28632813 1.86328125 2.62890625 C1.24839844 2.09136719 0.63351563 1.55382812 0 1 C0 0.67 0 0.34 0 0 Z " fill="#D75D6D" transform="translate(59,179)"/>
<path d="M0 0 C-1 3 -1 3 -3.9375 4.6875 C-7 6 -7 6 -9 6 C-9.33 6.99 -9.66 7.98 -10 9 C-11.32 8.67 -12.64 8.34 -14 8 C-12.37615858 6.85252535 -10.75088944 5.7070709 -9.125 4.5625 C-8.22007813 3.92441406 -7.31515625 3.28632813 -6.3828125 2.62890625 C-2.53717026 0 -2.53717026 0 0 0 Z " fill="#D46B7B" transform="translate(36,18)"/>
<path d="M0 0 C3.44137432 1.5294997 6.2222133 3.45369552 9 6 C9 6.99 9 7.98 9 9 C8.01 9 7.02 9 6 9 C4.39453125 7.28515625 4.39453125 7.28515625 2.8125 5.0625 C2.28269531 4.33160156 1.75289062 3.60070312 1.20703125 2.84765625 C0 1 0 1 0 0 Z M8 3 C8.66 3 9.32 3 10 3 C10 3.66 10 4.32 10 5 C9.34 5 8.68 5 8 5 C8 4.34 8 3.68 8 3 Z " fill="#D25163" transform="translate(34,152)"/>
<path d="M0 0 C1 2 1 2 0.0625 5.125 C-0.288125 6.07375 -0.63875 7.0225 -1 8 C-1.66 8 -2.32 8 -3 8 C-2.67 8.99 -2.34 9.98 -2 11 C-2.99 11.33 -3.98 11.66 -5 12 C-5 12.66 -5 13.32 -5 14 C-5.66 14 -6.32 14 -7 14 C-5.53967505 8.68972746 -3.01679014 4.53669968 0 0 Z " fill="#D46074" transform="translate(12,37)"/>
<path d="M0 0 C0.99 0 1.98 0 3 0 C3.33 1.32 3.66 2.64 4 4 C2.02 4.66 0.04 5.32 -2 6 C-2.99 5.01 -3.98 4.02 -5 3 C-4.34 2.67 -3.68 2.34 -3 2 C-2.01 2.33 -1.02 2.66 0 3 C0 2.01 0 1.02 0 0 Z " fill="#DA4057" transform="translate(125,202)"/>
<path d="M0 0 C2.64 0 5.28 0 8 0 C8.33 0.66 8.66 1.32 9 2 C8.01 3.485 8.01 3.485 7 5 C4.11562221 3.70700306 2.12780579 2.34058637 0 0 Z " fill="#D95269" transform="translate(77,193)"/>
<path d="M0 0 C0.66 0 1.32 0 2 0 C2.5345256 1.24420647 3.05208611 2.49570936 3.5625 3.75 C3.85253906 4.44609375 4.14257812 5.1421875 4.44140625 5.859375 C5.07831803 8.30012784 4.80248831 9.6403655 4 12 C3.67 11.01 3.34 10.02 3 9 C2.34 8.67 1.68 8.34 1 8 C0.40644386 5.35139573 0.25790731 2.70802678 0 0 Z " fill="#D96879" transform="translate(218,49)"/>
<path d="M0 0 C5.01113235 1.4317521 6.94469549 3.98445693 10 8 C7 8 7 8 5.17578125 6.50390625 C4.56089844 5.86324219 3.94601563 5.22257813 3.3125 4.5625 C2.68988281 3.92441406 2.06726562 3.28632813 1.42578125 2.62890625 C0 1 0 1 0 0 Z " fill="#D4586B" transform="translate(46,166)"/>
<path d="M0 0 C0.99 0.66 1.98 1.32 3 2 C2.25 7.75 2.25 7.75 0 10 C-0.66 9.67 -1.32 9.34 -2 9 C-2 8.34 -2 7.68 -2 7 C-1.34 6.67 -0.68 6.34 0 6 C0 4.02 0 2.04 0 0 Z " fill="#D95D6F" transform="translate(217,98)"/>
<path d="M0 0 C0.99 0 1.98 0 3 0 C2.52797514 4.24822374 0.03344482 6.19989709 -3 9 C-3.1875 6.6875 -3.1875 6.6875 -3 4 C-1.5 2.25 -1.5 2.25 0 1 C0 0.67 0 0.34 0 0 Z " fill="#D55E70" transform="translate(191,147)"/>
<path d="M0 0 C0.99 0.33 1.98 0.66 3 1 C1.8141763 4.37503669 0.72426311 6.64722731 -2 9 C-2.33 7.35 -2.66 5.7 -3 4 C-2.01 4 -1.02 4 0 4 C0 2.68 0 1.36 0 0 Z " fill="#D65D6E" transform="translate(198,137)"/>
<path d="M0 0 C3.36720387 1.39332574 4.9859524 2.9789286 7 6 C4 6 4 6 1 5 C0.67 3.35 0.34 1.7 0 0 Z " fill="#D56575" transform="translate(200,25)"/>
<path d="M0 0 C0.66 0.33 1.32 0.66 2 1 C1.6875 2.875 1.6875 2.875 1 5 C0.01 5.66 -0.98 6.32 -2 7 C-2.33 5.35 -2.66 3.7 -3 2 C-2.01 1.34 -1.02 0.68 0 0 Z " fill="#D84860" transform="translate(171,169)"/>
<path d="M0 0 C0.66 0 1.32 0 2 0 C2 0.66 2 1.32 2 2 C3.32 2.66 4.64 3.32 6 4 C6 4.99 6 5.98 6 7 C6.66 7.33 7.32 7.66 8 8 C7.01 8 6.02 8 5 8 C3.61328125 6.50390625 3.61328125 6.50390625 2.3125 4.5625 C1.87550781 3.92441406 1.43851563 3.28632813 0.98828125 2.62890625 C0 1 0 1 0 0 Z " fill="#D35D6F" transform="translate(27,143)"/>
<path d="M0 0 C0.99 0 1.98 0 3 0 C5.125 4.625 5.125 4.625 4 8 C0 2.25 0 2.25 0 0 Z " fill="#D86273" transform="translate(18,129)"/>
<path d="M0 0 C0.66 0 1.32 0 2 0 C2.33 0.99 2.66 1.98 3 3 C3.66 3.33 4.32 3.66 5 4 C4.67 5.65 4.34 7.3 4 9 C1.49701566 6.06171403 0.53069061 3.82097239 0 0 Z " fill="#D76B7A" transform="translate(10,113)"/>
<path d="M0 0 C1.98 0.66 3.96 1.32 6 2 C6 2.99 6 3.98 6 5 C4.35 5 2.7 5 1 5 C0.67 3.35 0.34 1.7 0 0 Z " fill="#D45365" transform="translate(108,34)"/>
<path d="M0 0 C1.32 0.66 2.64 1.32 4 2 C3 5 3 5 0.9375 6.1875 C0.298125 6.455625 -0.34125 6.72375 -1 7 C-1.625 5.1875 -1.625 5.1875 -2 3 C-1.34 2.01 -0.68 1.02 0 0 Z " fill="#DC465B" transform="translate(15,33)"/>
<path d="M0 0 C2.0625 0.6875 2.0625 0.6875 4 2 C4.75 4.125 4.75 4.125 5 6 C2.11562221 4.70700306 0.12780579 3.34058637 -2 1 C-1.34 0.67 -0.68 0.34 0 0 Z M4 1 C6 2 6 2 6 2 Z " fill="#D75B6D" transform="translate(72,187)"/>
<path d="M0 0 C0.99 0 1.98 0 3 0 C3.625 2.875 3.625 2.875 4 6 C3.34 6.66 2.68 7.32 2 8 C0.74335022 5.09399739 0 3.20395416 0 0 Z " fill="#D96B7D" transform="translate(6,103)"/>
<path d="M0 0 C0.33 0.99 0.66 1.98 1 3 C-0.98 4.32 -2.96 5.64 -5 7 C-5.66 6.67 -6.32 6.34 -7 6 C-4.69 4.02 -2.38 2.04 0 0 Z " fill="#D7707F" transform="translate(124,25)"/>
<path d="M0 0 C1.32 0 2.64 0 4 0 C4 0.66 4 1.32 4 2 C0.53846154 5 0.53846154 5 -2 5 C-2 4.01 -2 3.02 -2 2 C-1.34 2 -0.68 2 0 2 C0 1.34 0 0.68 0 0 Z " fill="#D15769" transform="translate(151,187)"/>
<path d="M0 0 C2.475 0.495 2.475 0.495 5 1 C5.33 2.65 5.66 4.3 6 6 C5.01 5.67 4.02 5.34 3 5 C3 4.01 3 3.02 3 2 C2.01 2 1.02 2 0 2 C0 1.34 0 0.68 0 0 Z " fill="#DC3950" transform="translate(9,111)"/>
<path d="M0 0 C0 0.66 0 1.32 0 2 C-4.455 2.495 -4.455 2.495 -9 3 C-6.01800145 0.01800145 -4.21244839 0 0 0 Z " fill="#DA6F7D" transform="translate(148,14)"/>
</svg>
